<?xml version="1.0" encoding="utf-8"?>
<!-- Generator: Adobe Illustrator 16.0.0, SVG Export Plug-In . SVG Version: 6.00 Build 0)  -->
<!DOCTYPE svg PUBLIC "-//W3C//DTD SVG 1.1//EN" "http://www.w3.org/Graphics/SVG/1.1/DTD/svg11.dtd">
<svg version="1.1" id="Layer_1" xmlns="http://www.w3.org/2000/svg" xmlns:xlink="http://www.w3.org/1999/xlink" x="0px" y="0px"
	 width="512px" height="512px" viewBox="0 0 512 512" enable-background="new 0 0 512 512" xml:space="preserve">
<path d="M464,87.89v-32c0-5.031-2.375-9.781-6.406-12.813C398.531-1.204,317.281-3.423,256,36.39
	C194.719-3.423,113.438-1.204,54.406,43.077C50.375,46.109,48,50.859,48,55.89v32H0v416h512v-416H464z M272,64.14
	c48.125-32.125,111.875-32.125,160,0v347.031c-25-12.719-52.5-19.063-80-19.063s-55,6.344-80,19.063V64.14z M80,64.14
	c48.125-32.125,111.875-32.125,160,0v347.031c-50.031-25.375-109.969-25.375-160,0V64.14z"/>
</svg>
